<!DOCTYPE svg PUBLIC "-//W3C//DTD SVG 20010904//EN" "http://www.w3.org/TR/2001/REC-SVG-20010904/DTD/svg10.dtd">
<svg version="1.0" xmlns="http://www.w3.org/2000/svg" width="57px" height="63px" viewBox="0 0 570 630" preserveAspectRatio="xMidYMid meet">
<g id="layer101" fill="#000000" stroke="none">
 <path d="M150 604 c0 -24 -3 -26 -31 -20 -43 8 -83 -31 -77 -79 3 -26 0 -35 -14 -38 -30 -8 -33 -37 -9 -79 12 -22 24 -61 26 -89 7 -77 54 -152 117 -185 62 -32 66 -6 4 30 -56 32 -85 80 -93 148 -3 29 -17 74 -30 101 l-23 47 25 0 c24 0 25 3 25 54 0 61 8 68 64 59 35 -5 36 -5 36 26 l0 31 110 0 110 0 0 -81 c0 -70 3 -84 25 -113 14 -18 25 -38 25 -44 0 -7 7 -12 15 -12 21 0 19 10 -15 63 -27 43 -30 56 -30 127 l0 80 -130 0 -130 0 0 -26z"/>
 <path d="M340 356 c-11 -29 -29 -37 -52 -22 -28 17 -61 -20 -53 -61 5 -29 3 -34 -20 -43 -20 -8 -25 -16 -25 -45 0 -28 4 -35 19 -35 23 0 32 -21 25 -59 -5 -22 -1 -32 17 -44 16 -12 26 -13 35 -6 19 15 54 1 54 -22 0 -28 70 -28 77 0 6 25 29 34 52 21 35 -18 84 44 51 65 -13 8 9 42 32 48 12 4 18 15 18 36 0 17 -4 31 -10 31 -5 0 -19 9 -30 20 -17 17 -18 23 -8 40 11 17 9 23 -10 42 -18 18 -26 21 -40 11 -21 -13 -52 0 -52 21 0 33 -67 35 -80 2z m54 -20 c-8 -20 66 -52 77 -35 4 7 15 9 25 5 18 -7 18 -8 2 -20 -16 -12 -16 -15 0 -49 9 -21 23 -37 32 -37 9 0 17 -7 17 -15 0 -8 -8 -15 -18 -15 -24 0 -53 -58 -38 -76 15 -19 1 -38 -16 -24 -20 17 -85 -8 -85 -32 0 -10 -7 -18 -15 -18 -8 0 -15 9 -15 19 0 23 -56 47 -75 31 -9 -7 -16 -6 -24 4 -9 11 -9 15 0 18 20 7 -9 78 -32 78 -10 0 -19 7 -19 15 0 8 8 15 18 15 24 0 49 65 32 85 -14 17 5 31 24 16 18 -15 76 8 76 31 0 11 7 18 20 18 13 0 18 -5 14 -14z"/>
 <path d="M332 243 c-12 -10 -24 -30 -28 -45 -5 -22 0 -33 24 -58 36 -35 60 -38 96 -9 52 41 23 129 -43 129 -16 0 -38 -8 -49 -17z m88 -28 c18 -22 4 -64 -24 -71 -50 -12 -88 40 -54 74 17 17 63 15 78 -3z"/>
 </g>

</svg>