<svg xmlns="http://www.w3.org/2000/svg" width="97" height="92"><defs><filter id="a" x="1" y="0" width="98" height="92" filterUnits="userSpaceOnUse"><feFlood result="flood" flood-color="#46b814"/><feComposite result="composite" operator="in" in2="SourceGraphic"/><feBlend result="blend" in2="SourceGraphic"/></filter></defs><path data-name="Forma 1" d="M98.408 55.884L81.089 88.635a6.85 6.85 0 01-5.105 3.351L6.531 92A5.526 5.526 0 011 86.474l.012-53.89a5.527 5.527 0 015.523-5.524h5.078v4.708h-3.4a2.506 2.506 0 00-2.506 2.502v50.518a2.508 2.508 0 002.509 2.507H11.7l16.414-33.18c.927-1.853 2.68-3.35 4.532-3.35h40.2l.013-13.353a5.144 5.144 0 014.7 5.1v8.249H95.99c2.177.026 4.01 2.177 2.418 5.123zM14.815 70.592c-.15-16.514 0-66.061 0-66.061A4.537 4.537 0 0119.349 0h36.309a2.076 2.076 0 011.528.671l11.739 12.744a2.08 2.08 0 01.549 1.407v33.013h-3.808V17.672a.947.947 0 00-.947-.946h-8.985a1.906 1.906 0 01-1.906-1.9V4.751a.947.947 0 00-.947-.946H19.352a.727.727 0 00-.727.725v61.909l-2.914 5.891s-.881-.065-.896-1.738zm42.825-57.67h5.66l-5.659-6.143v6.143zM59.7 20.6H24.612a2.341 2.341 0 100 4.683H59.7a2.341 2.341 0 100-4.683zm2.344 15.976a2.345 2.345 0 00-2.344-2.34H24.612a2.34 2.34 0 100 4.679H59.7a2.345 2.345 0 002.348-2.337zm-39.775 13.73a2.342 2.342 0 002.342 2.339h.841a7.023 7.023 0 015.148-4.68h-5.989a2.344 2.344 0 00-2.342 2.341z" transform="translate(-1)" fill-rule="evenodd" filter="url(#a)"/></svg>